<?xml version="1.0" standalone="no"?>
<!DOCTYPE svg PUBLIC "-//W3C//DTD SVG 20010904//EN"
 "http://www.w3.org/TR/2001/REC-SVG-20010904/DTD/svg10.dtd">
<svg version="1.0" xmlns="http://www.w3.org/2000/svg"
 width="16.000000pt" height="16.000000pt" viewBox="0 0 16.000000 16.000000"
 preserveAspectRatio="xMidYMid meet">
<metadata>
Created by potrace 1.11, written by Peter Selinger 2001-2013
</metadata>
<g transform="translate(0.000000,16.000000) scale(0.016000,-0.016000)"
fill="#000000" stroke="none">
<path d="M395 921 c-79 -23 -138 -58 -196 -116 -42 -42 -98 -134 -107 -175
-36 -170 -6 -299 97 -412 169 -185 462 -185 631 -1 82 89 114 176 113 303 -2
271 -276 475 -538 401z m298 -339 c-14 -26 -30 -51 -34 -57 -4 -5 -17 -28 -29
-50 -54 -100 -124 -214 -129 -210 -2 3 -50 85 -106 182 l-103 178 121 5 c67 3
163 4 214 2 l93 -3 -27 -47z"/>
<path d="M398 592 c-21 -2 -38 -7 -38 -13 0 -5 4 -9 10 -9 6 0 9 -3 8 -7 -2
-8 18 -45 90 -166 28 -47 37 -56 48 -46 8 6 14 15 14 19 0 5 27 54 60 111 33
56 59 103 57 106 -5 5 -201 9 -249 5z"/>
</g>
</svg>
